<svg width="101" height="100" viewBox="0 0 101 100" fill="none" xmlns="http://www.w3.org/2000/svg">
<path d="M68.508 42.8899H57.4141L47.9321 63.1962C47.9321 63.1962 44.0831 54.0756 43.5726 52.8997C41.3813 47.8116 38.0141 45.7007 35.5705 44.8173C32.9433 43.8708 30.4021 43.9569 28.4174 44.3355C26.2892 44.737 24.7921 45.4655 24.5053 45.6146L29.0656 54.5288L29.0025 54.5632C29.4671 54.3452 31.0503 53.8175 32.2205 54.2592C32.8056 54.4771 33.6316 55.1368 34.2339 56.2841L44.5879 78.5694H51.2821L68.508 42.8899ZM75.512 29.9489C75.512 26.49 72.7127 23.6907 69.2537 23.6907C65.7948 23.6907 62.9955 26.49 62.9955 29.9489C62.9955 33.4079 65.7948 36.2072 69.2537 36.2072C72.7127 36.2072 75.512 33.4079 75.512 29.9489ZM95.52 49.9971C95.52 75.0932 75.1047 95.5143 50.0029 95.5143C24.9011 95.5143 4.48575 75.0932 4.48575 49.9971C4.48575 24.9011 24.9068 4.48001 50.0029 4.48001C75.099 4.48001 95.52 24.9011 95.52 49.9971ZM100.006 49.9971C100.006 22.4287 77.577 0 50.0029 0C22.4287 0 0 22.4287 0 49.9971C0 77.5655 22.4287 100 50.0029 100C77.577 100 100.006 77.5655 100.006 49.9971Z" fill="#EFEFEF"/>
</svg>
