<svg width="126" height="140" viewBox="0 0 126 140" fill="none" xmlns="http://www.w3.org/2000/svg">
<path d="M81.508 42.8899H70.4141L60.9321 63.1962C60.9321 63.1962 57.0831 54.0756 56.5726 52.8997C54.3813 47.8116 51.0141 45.7007 48.5705 44.8173C45.9433 43.8708 43.4021 43.9569 41.4174 44.3355C39.2892 44.737 37.7921 45.4655 37.5053 45.6146L42.0656 54.5288L42.0025 54.5632C42.4671 54.3452 44.0503 53.8175 45.2205 54.2592C45.8056 54.4771 46.6316 55.1368 47.2339 56.2841L57.5879 78.5694H64.2821L81.508 42.8899ZM88.512 29.9489C88.512 26.49 85.7127 23.6907 82.2537 23.6907C78.7948 23.6907 75.9955 26.49 75.9955 29.9489C75.9955 33.4079 78.7948 36.2072 82.2537 36.2072C85.7127 36.2072 88.512 33.4079 88.512 29.9489ZM108.52 49.9971C108.52 75.0932 88.1047 95.5143 63.0029 95.5143C37.9011 95.5143 17.4857 75.0932 17.4857 49.9971C17.4857 24.9011 37.9068 4.48001 63.0029 4.48001C88.099 4.48001 108.52 24.9011 108.52 49.9971ZM113.006 49.9971C113.006 22.4287 90.577 0 63.0029 0C35.4287 0 13 22.4287 13 49.9971C13 77.5655 35.4287 100 63.0029 100C90.577 100 113.006 77.5655 113.006 49.9971Z" fill="#EFEFEF"/>
<path d="M11.439 117.728H16.495L20.111 125.376L23.727 117.728H28.783L21.551 132H18.671L11.439 117.728ZM30.9557 117.728H35.5638V132H30.9557V117.728ZM31.3398 113.568C30.8278 113.035 30.5718 112.395 30.5718 111.648C30.5718 110.901 30.8278 110.272 31.3398 109.76C31.8731 109.227 32.5131 108.96 33.2598 108.96C34.0064 108.96 34.6358 109.227 35.1478 109.76C35.6811 110.272 35.9478 110.901 35.9478 111.648C35.9478 112.395 35.6811 113.035 35.1478 113.568C34.6358 114.08 34.0064 114.336 33.2598 114.336C32.5131 114.336 31.8731 114.08 31.3398 113.568ZM50.3275 119.392V117.728H54.9355V131.136C54.9355 131.989 54.9035 132.693 54.8395 133.248C54.7968 133.824 54.6368 134.485 54.3595 135.232C54.0822 136 53.6875 136.661 53.1755 137.216C51.8528 138.624 49.8475 139.328 47.1595 139.328C44.5995 139.328 42.6155 138.72 41.2075 137.504C40.0555 136.523 39.3408 135.264 39.0635 133.728H44.0875C44.2368 134.304 44.5782 134.773 45.1115 135.136C45.6022 135.456 46.2635 135.616 47.0955 135.616C48.0555 135.616 48.8235 135.36 49.3995 134.848C50.0182 134.251 50.3275 133.259 50.3275 131.872V130.24C49.4528 131.669 48.0342 132.384 46.0715 132.384C43.9382 132.384 42.1995 131.712 40.8555 130.368C39.4688 128.939 38.7755 127.147 38.7755 124.992C38.7755 122.645 39.4795 120.747 40.8875 119.296C42.2102 117.931 43.9382 117.248 46.0715 117.248C47.9488 117.248 49.3675 117.963 50.3275 119.392ZM47.1275 121.248C46.1035 121.248 45.2608 121.557 44.5995 122.176C43.8742 122.859 43.5115 123.744 43.5115 124.832C43.5115 125.835 43.8422 126.688 44.5035 127.392C45.1435 128.075 46.0075 128.416 47.0955 128.416C48.0982 128.416 48.9302 128.107 49.5915 127.488C50.3382 126.784 50.7115 125.877 50.7115 124.768C50.7115 123.701 50.3488 122.827 49.6235 122.144C48.9622 121.547 48.1302 121.248 47.1275 121.248ZM58.5108 132V117.728H63.1188V119.968C63.5668 119.093 64.1641 118.432 64.9108 117.984C65.5508 117.579 66.3721 117.376 67.3748 117.376C67.9081 117.376 68.4094 117.451 68.8788 117.6L68.6228 121.92C67.9828 121.579 67.2894 121.408 66.5428 121.408C65.6041 121.408 64.8361 121.728 64.2388 122.368C63.4921 123.157 63.1188 124.437 63.1188 126.208V132H58.5108ZM81.2673 119.328V117.728H85.8753V132H81.2673V130.272C80.3073 131.744 78.8993 132.48 77.0433 132.48C74.8459 132.48 73.0646 131.755 71.6993 130.304C70.3126 128.832 69.6193 127.051 69.6193 124.96C69.6193 122.592 70.3553 120.672 71.8273 119.2C73.1286 117.899 74.7819 117.248 76.7873 117.248C78.7499 117.248 80.2433 117.941 81.2673 119.328ZM77.9392 121.216C76.9366 121.216 76.0939 121.557 75.4113 122.24C74.7073 122.944 74.3553 123.808 74.3553 124.832C74.3553 125.856 74.6753 126.709 75.3153 127.392C76.0193 128.139 76.9259 128.512 78.0353 128.512C78.9739 128.512 79.7739 128.181 80.4353 127.52C81.1819 126.816 81.5553 125.92 81.5553 124.832C81.5553 123.744 81.2033 122.869 80.4993 122.208C79.8166 121.547 78.9633 121.216 77.9392 121.216ZM89.4483 132V117.728H94.0563V119.392C94.9523 118.048 96.2856 117.376 98.0563 117.376C99.1443 117.376 100.04 117.589 100.744 118.016C101.491 118.443 102.067 119.104 102.472 120C102.92 119.253 103.528 118.645 104.296 118.176C105.171 117.643 106.184 117.376 107.336 117.376C109.064 117.376 110.398 117.824 111.336 118.72C112.318 119.659 112.808 121.077 112.808 122.976V132H108.2V124.768C108.2 123.424 107.998 122.496 107.592 121.984C107.187 121.472 106.632 121.216 105.928 121.216C105.16 121.216 104.563 121.504 104.136 122.08C103.667 122.677 103.432 123.616 103.432 124.896V132H98.8243V124.576C98.8243 123.211 98.5789 122.283 98.0883 121.792C97.7043 121.408 97.1923 121.216 96.5523 121.216C95.8909 121.216 95.3576 121.408 94.9523 121.792C94.3549 122.368 94.0563 123.339 94.0563 124.704V132H89.4483Z" fill="#EFEFEF"/>
</svg>
