<svg width="7" height="12" viewBox="0 0 7 12" fill="none" xmlns="http://www.w3.org/2000/svg">
<path d="M5.525 11.8333C5.40051 11.8338 5.2775 11.8063 5.16502 11.7529C5.05253 11.6996 4.95344 11.6217 4.875 11.525L0.850004 6.525C0.727436 6.37589 0.660431 6.18885 0.660431 5.99583C0.660431 5.80281 0.727436 5.61577 0.850004 5.46666L5.01667 0.466663C5.15812 0.296482 5.36138 0.189462 5.58173 0.169145C5.80209 0.148829 6.02149 0.21688 6.19167 0.358329C6.36185 0.499778 6.46887 0.703038 6.48919 0.923393C6.5095 1.14375 6.44145 1.36315 6.3 1.53333L2.575 6L6.175 10.4667C6.27691 10.589 6.34164 10.7379 6.36154 10.8959C6.38144 11.0538 6.35567 11.2142 6.28729 11.358C6.21891 11.5017 6.11078 11.6229 5.97569 11.7072C5.84059 11.7914 5.6842 11.8352 5.525 11.8333Z" fill="#EFEFEF"/>
</svg>
