<svg width="102" height="32" viewBox="0 0 102 32" fill="none" xmlns="http://www.w3.org/2000/svg">
<path d="M0.439 9.728H5.495L9.111 17.376L12.727 9.728H17.783L10.551 24H7.671L0.439 9.728ZM19.9557 9.728H24.5638V24H19.9557V9.728ZM20.3398 5.568C19.8278 5.03467 19.5718 4.39467 19.5718 3.648C19.5718 2.90133 19.8278 2.272 20.3398 1.76C20.8731 1.22667 21.5131 0.959999 22.2598 0.959999C23.0064 0.959999 23.6358 1.22667 24.1478 1.76C24.6811 2.272 24.9478 2.90133 24.9478 3.648C24.9478 4.39467 24.6811 5.03467 24.1478 5.568C23.6358 6.08 23.0064 6.336 22.2598 6.336C21.5131 6.336 20.8731 6.08 20.3398 5.568ZM39.3275 11.392V9.728H43.9355V23.136C43.9355 23.9893 43.9035 24.6933 43.8395 25.248C43.7968 25.824 43.6368 26.4853 43.3595 27.232C43.0822 28 42.6875 28.6613 42.1755 29.216C40.8528 30.624 38.8475 31.328 36.1595 31.328C33.5995 31.328 31.6155 30.72 30.2075 29.504C29.0555 28.5227 28.3408 27.264 28.0635 25.728H33.0875C33.2368 26.304 33.5782 26.7733 34.1115 27.136C34.6022 27.456 35.2635 27.616 36.0955 27.616C37.0555 27.616 37.8235 27.36 38.3995 26.848C39.0182 26.2507 39.3275 25.2587 39.3275 23.872V22.24C38.4528 23.6693 37.0342 24.384 35.0715 24.384C32.9382 24.384 31.1995 23.712 29.8555 22.368C28.4688 20.9387 27.7755 19.1467 27.7755 16.992C27.7755 14.6453 28.4795 12.7467 29.8875 11.296C31.2102 9.93067 32.9382 9.248 35.0715 9.248C36.9488 9.248 38.3675 9.96267 39.3275 11.392ZM36.1275 13.248C35.1035 13.248 34.2608 13.5573 33.5995 14.176C32.8742 14.8587 32.5115 15.744 32.5115 16.832C32.5115 17.8347 32.8422 18.688 33.5035 19.392C34.1435 20.0747 35.0075 20.416 36.0955 20.416C37.0982 20.416 37.9302 20.1067 38.5915 19.488C39.3382 18.784 39.7115 17.8773 39.7115 16.768C39.7115 15.7013 39.3488 14.8267 38.6235 14.144C37.9622 13.5467 37.1302 13.248 36.1275 13.248ZM47.5108 24V9.728H52.1188V11.968C52.5668 11.0933 53.1641 10.432 53.9108 9.984C54.5508 9.57867 55.3721 9.376 56.3748 9.376C56.9081 9.376 57.4094 9.45067 57.8788 9.6L57.6228 13.92C56.9828 13.5787 56.2894 13.408 55.5428 13.408C54.6041 13.408 53.8361 13.728 53.2388 14.368C52.4921 15.1573 52.1188 16.4373 52.1188 18.208V24H47.5108ZM70.2673 11.328V9.728H74.8753V24H70.2673V22.272C69.3073 23.744 67.8993 24.48 66.0433 24.48C63.8459 24.48 62.0646 23.7547 60.6993 22.304C59.3126 20.832 58.6193 19.0507 58.6193 16.96C58.6193 14.592 59.3553 12.672 60.8273 11.2C62.1286 9.89867 63.7819 9.248 65.7873 9.248C67.7499 9.248 69.2433 9.94133 70.2673 11.328ZM66.9392 13.216C65.9366 13.216 65.0939 13.5573 64.4113 14.24C63.7073 14.944 63.3553 15.808 63.3553 16.832C63.3553 17.856 63.6753 18.7093 64.3153 19.392C65.0193 20.1387 65.9259 20.512 67.0353 20.512C67.9739 20.512 68.7739 20.1813 69.4353 19.52C70.1819 18.816 70.5553 17.92 70.5553 16.832C70.5553 15.744 70.2033 14.8693 69.4993 14.208C68.8166 13.5467 67.9633 13.216 66.9392 13.216ZM78.4483 24V9.728H83.0563V11.392C83.9523 10.048 85.2856 9.376 87.0563 9.376C88.1443 9.376 89.0403 9.58933 89.7443 10.016C90.4909 10.4427 91.0669 11.104 91.4723 12C91.9203 11.2533 92.5283 10.6453 93.2963 10.176C94.1709 9.64267 95.1843 9.376 96.3363 9.376C98.0643 9.376 99.3976 9.824 100.336 10.72C101.318 11.6587 101.808 13.0773 101.808 14.976V24H97.2003V16.768C97.2003 15.424 96.9976 14.496 96.5923 13.984C96.1869 13.472 95.6323 13.216 94.9283 13.216C94.1603 13.216 93.5629 13.504 93.1363 14.08C92.6669 14.6773 92.4323 15.616 92.4323 16.896V24H87.8243V16.576C87.8243 15.2107 87.5789 14.2827 87.0883 13.792C86.7043 13.408 86.1923 13.216 85.5523 13.216C84.8909 13.216 84.3576 13.408 83.9523 13.792C83.3549 14.368 83.0563 15.3387 83.0563 16.704V24H78.4483Z" fill="#EFEFEF"/>
</svg>
