<svg width="22" height="22" viewBox="0 0 22 22" fill="none" xmlns="http://www.w3.org/2000/svg">
<rect width="22" height="22" rx="5" fill="#EC6608"/>
<path fill-rule="evenodd" clip-rule="evenodd" d="M11 5C11.4322 5 11.7826 5.35039 11.7826 5.78261V10.2174H16.2174C16.6496 10.2174 17 10.5678 17 11C17 11.4322 16.6496 11.7826 16.2174 11.7826H11.7826V16.2174C11.7826 16.6496 11.4322 17 11 17C10.5678 17 10.2174 16.6496 10.2174 16.2174V11.7826H5.78261C5.35039 11.7826 5 11.4322 5 11C5 10.5678 5.35039 10.2174 5.78261 10.2174H10.2174V5.78261C10.2174 5.35039 10.5678 5 11 5Z" fill="#EFEFEF"/>
</svg>
