<svg width="23" height="23" viewBox="0 0 23 23" fill="none" xmlns="http://www.w3.org/2000/svg">
<path d="M1.34644 22.7568C1.18988 22.7595 1.03499 22.7243 0.895015 22.6542C0.75504 22.584 0.63414 22.4811 0.542647 22.3542C0.451154 22.2272 0.39179 22.08 0.369627 21.9252C0.347465 21.7703 0.363163 21.6124 0.415381 21.4649L2.4844 14.6827C2.03408 13.5166 1.80601 12.2767 1.81197 11.0268C1.8099 9.65192 2.08247 8.29044 2.61371 7.02209C3.13482 5.80837 3.88066 4.70387 4.81204 3.76664C5.74804 2.82756 6.85965 2.08138 8.08367 1.5705C9.34954 1.03362 10.7107 0.756929 12.0859 0.756929C13.4611 0.756929 14.8223 1.03362 16.0882 1.5705C17.9427 2.36408 19.5245 3.68206 20.6388 5.36221C21.7531 7.04236 22.3513 9.01136 22.3599 11.0268C22.3518 13.7488 21.2691 16.3578 19.3469 18.287C18.4087 19.2174 17.3031 19.9625 16.0882 20.4831C13.643 21.5061 10.8981 21.5524 8.41988 20.6123L1.63093 22.6793C1.54012 22.7181 1.44439 22.7441 1.34644 22.7568ZM12.0794 2.73316C10.4416 2.74024 8.84166 3.22593 7.47678 4.13035C6.1119 5.03478 5.04175 6.31841 4.39823 7.82304C3.54327 9.89141 3.54327 12.2139 4.39823 14.2823C4.47527 14.4951 4.47527 14.7282 4.39823 14.9411L2.80768 20.3281L8.17418 18.7004C8.38727 18.6234 8.6206 18.6234 8.83368 18.7004C9.8584 19.1254 10.957 19.3442 12.0665 19.3442C13.176 19.3442 14.2746 19.1254 15.2994 18.7004C16.309 18.2758 17.2249 17.6563 17.9945 16.8775C18.7641 16.0986 19.3724 15.1758 19.7844 14.1618C20.1964 13.1477 20.4041 12.0624 20.3956 10.9681C20.3871 9.87373 20.1625 8.7918 19.7348 7.78428C19.0927 6.28697 18.0253 5.01051 16.6648 4.11277C15.3042 3.21503 13.71 2.73539 12.0794 2.73316Z" fill="#EFEFEF"/>
</svg>
