<svg width="26" height="26" viewBox="0 0 26 26" fill="none" xmlns="http://www.w3.org/2000/svg">
<path d="M26 3.69805C25.9971 2.73427 25.6194 1.80947 24.9469 1.11948C24.2744 0.429494 23.36 0.0285162 22.3971 0.00146311C21.4343 -0.02559 20.4988 0.323407 19.7887 0.974543C19.0786 1.62568 18.6496 2.52782 18.5927 3.48992L7.0438 5.80074C6.77378 5.23917 6.36664 4.75478 5.86002 4.39232C5.3534 4.02986 4.76364 3.80104 4.14526 3.72701C3.52687 3.65297 2.89981 3.7361 2.32202 3.96873C1.74424 4.20135 1.23439 4.57596 0.839582 5.05792C0.444776 5.53989 0.177758 6.11366 0.063209 6.72621C-0.0513403 7.33876 -0.00972525 7.97032 0.184208 8.56252C0.378141 9.15471 0.718134 9.68844 1.17276 10.1144C1.62739 10.5403 2.18199 10.8447 2.78529 10.9994V18.6965C2.15198 18.8592 1.57296 19.1866 1.10699 19.6456C0.641015 20.1045 0.304688 20.6787 0.132141 21.3097C-0.0404056 21.9408 -0.0430291 22.6063 0.124537 23.2387C0.292102 23.8711 0.623892 24.4479 1.08623 24.9105C1.54857 25.3731 2.12499 25.7051 2.757 25.8728C3.38901 26.0404 4.0541 26.0378 4.68476 25.8651C5.31543 25.6925 5.88922 25.356 6.34789 24.8897C6.80657 24.4235 7.1338 23.8441 7.29637 23.2104H14.9888C15.1432 23.8144 15.4473 24.3698 15.873 24.8251C16.2987 25.2804 16.8322 25.621 17.4243 25.8153C18.0164 26.0096 18.6479 26.0514 19.2604 25.9368C19.8729 25.8222 20.4467 25.5549 20.9286 25.1597C21.4105 24.7644 21.7851 24.254 22.0176 23.6755C22.2501 23.097 22.3331 22.4692 22.2589 21.8502C22.1847 21.2311 21.9557 20.6407 21.5931 20.1337C21.2305 19.6266 20.7459 19.2193 20.1843 18.9493L22.4937 7.39331C23.4391 7.34161 24.3289 6.93006 24.9808 6.24301C25.6327 5.55596 25.9974 4.64545 26 3.69805ZM22.2856 1.83974C22.653 1.83974 23.012 1.94872 23.3174 2.15292C23.6229 2.35711 23.8609 2.64734 24.0015 2.98691C24.142 3.32647 24.1788 3.70011 24.1071 4.06059C24.0355 4.42107 23.8586 4.75219 23.5989 5.01208C23.3391 5.27197 23.0082 5.44896 22.648 5.52066C22.2877 5.59236 21.9143 5.55556 21.5749 5.41491C21.2356 5.27426 20.9455 5.03608 20.7415 4.73048C20.5374 4.42488 20.4285 4.06559 20.4285 3.69805C20.429 3.20535 20.6248 2.73296 20.973 2.38457C21.3211 2.03617 21.7932 1.84023 22.2856 1.83974ZM1.8567 7.41468C1.8567 7.04714 1.96562 6.68786 2.16969 6.38226C2.37376 6.07666 2.66381 5.83848 3.00317 5.69782C3.34252 5.55717 3.71594 5.52037 4.0762 5.59207C4.43645 5.66378 4.76737 5.84077 5.0271 6.10066C5.28683 6.36055 5.46371 6.69167 5.53537 7.05215C5.60703 7.41262 5.57025 7.78627 5.42969 8.12583C5.28912 8.46539 5.05108 8.75562 4.74567 8.95982C4.44026 9.16401 4.08119 9.273 3.71388 9.273C3.22148 9.27251 2.74938 9.07656 2.4012 8.72817C2.05302 8.37977 1.85719 7.90739 1.8567 7.41468ZM3.71388 24.1395C3.34657 24.1395 2.9875 24.0305 2.68209 23.8263C2.37668 23.6222 2.13864 23.3319 1.99807 22.9924C1.85751 22.6528 1.82073 22.2792 1.89239 21.9187C1.96405 21.5582 2.14093 21.2271 2.40066 20.9672C2.66039 20.7073 2.99131 20.5303 3.35156 20.4586C3.71182 20.3869 4.08524 20.4237 4.42459 20.5644C4.76395 20.705 5.054 20.9432 5.25807 21.2488C5.46214 21.5544 5.57106 21.9137 5.57106 22.2812C5.57057 22.7739 5.37474 23.2463 5.02656 23.5947C4.67838 23.9431 4.20628 24.139 3.71388 24.1395ZM14.9888 21.3521H7.29637C7.13004 20.7132 6.79642 20.1304 6.32991 19.6636C5.8634 19.1968 5.2809 18.863 4.64247 18.6965V10.9994C5.40117 10.8019 6.07764 10.3686 6.57444 9.76175C7.07124 9.15494 7.36271 8.406 7.40688 7.62282L18.9557 5.312C19.3197 6.0611 19.9242 6.66638 20.6727 7.03094L18.3633 18.586C17.5806 18.6301 16.8321 18.9218 16.2257 19.4189C15.6192 19.916 15.1861 20.5929 14.9888 21.3521ZM18.5713 24.1395C18.204 24.1395 17.8449 24.0305 17.5395 23.8263C17.2341 23.6222 16.9961 23.3319 16.8555 22.9924C16.7149 22.6528 16.6781 22.2792 16.7498 21.9187C16.8215 21.5582 16.9983 21.2271 17.2581 20.9672C17.5178 20.7073 17.8487 20.5303 18.209 20.4586C18.5692 20.3869 18.9427 20.4237 19.282 20.5644C19.6214 20.705 19.9114 20.9432 20.1155 21.2488C20.3196 21.5544 20.4285 21.9137 20.4285 22.2812C20.428 22.7739 20.2322 23.2463 19.884 23.5947C19.5358 23.9431 19.0637 24.139 18.5713 24.1395Z" fill="#EFEFEF"/>
</svg>
