<svg width="11" height="10" viewBox="0 0 11 10" fill="none" xmlns="http://www.w3.org/2000/svg">
<path d="M9.73601 0.969999C9.80426 0.900365 9.88571 0.845046 9.9756 0.807281C10.0655 0.769517 10.162 0.750065 10.2595 0.750065C10.357 0.750065 10.4535 0.769517 10.5434 0.807281C10.6333 0.845046 10.7148 0.900365 10.783 0.969999C11.069 1.259 11.073 1.726 10.793 2.02L4.88001 9.01C4.81288 9.08372 4.73141 9.14297 4.64059 9.18412C4.54977 9.22528 4.45151 9.24747 4.35182 9.24934C4.25213 9.25121 4.1531 9.23272 4.0608 9.19501C3.9685 9.1573 3.88487 9.10115 3.81501 9.03L0.217011 5.384C0.0782478 5.24248 0.000518799 5.05219 0.000518799 4.854C0.000518799 4.6558 0.0782478 4.46551 0.217011 4.324C0.285257 4.25436 0.366709 4.19905 0.456599 4.16128C0.546489 4.12352 0.64301 4.10406 0.740511 4.10406C0.838011 4.10406 0.934532 4.12352 1.02442 4.16128C1.11431 4.19905 1.19576 4.25436 1.26401 4.324L4.31601 7.417L9.71601 0.991999C9.72223 0.984271 9.72891 0.976924 9.73601 0.969999Z" fill="white"/>
</svg>
