<svg width="12" height="12" viewBox="0 0 12 12" fill="none" xmlns="http://www.w3.org/2000/svg">
<path d="M7.29244 6.00009L11.2341 2.06759C11.4067 1.89498 11.5037 1.66087 11.5037 1.41676C11.5037 1.17265 11.4067 0.938534 11.2341 0.765922C11.0615 0.59331 10.8274 0.496338 10.5833 0.496338C10.3392 0.496338 10.1051 0.59331 9.93244 0.765922L5.99994 4.70759L2.06744 0.765922C1.89483 0.59331 1.66072 0.496338 1.41661 0.496338C1.1725 0.496338 0.938389 0.59331 0.765777 0.765922C0.593166 0.938534 0.496193 1.17265 0.496193 1.41676C0.496193 1.66087 0.593166 1.89498 0.765777 2.06759L4.70744 6.00009L0.765777 9.93259C0.67986 10.0178 0.611665 10.1192 0.565127 10.2309C0.518589 10.3426 0.494629 10.4624 0.494629 10.5834C0.494629 10.7044 0.518589 10.8242 0.565127 10.936C0.611665 11.0477 0.67986 11.149 0.765777 11.2343C0.850993 11.3202 0.952378 11.3884 1.06408 11.4349C1.17579 11.4814 1.2956 11.5054 1.41661 11.5054C1.53762 11.5054 1.65743 11.4814 1.76914 11.4349C1.88084 11.3884 1.98223 11.3202 2.06744 11.2343L5.99994 7.29259L9.93244 11.2343C10.0177 11.3202 10.119 11.3884 10.2307 11.4349C10.3425 11.4814 10.4623 11.5054 10.5833 11.5054C10.7043 11.5054 10.8241 11.4814 10.9358 11.4349C11.0475 11.3884 11.1489 11.3202 11.2341 11.2343C11.32 11.149 11.3882 11.0477 11.4348 10.936C11.4813 10.8242 11.5053 10.7044 11.5053 10.5834C11.5053 10.4624 11.4813 10.3426 11.4348 10.2309C11.3882 10.1192 11.32 10.0178 11.2341 9.93259L7.29244 6.00009Z" fill="#EFEFEF"/>
</svg>
