<svg width="22" height="16" viewBox="0 0 22 16" fill="none" xmlns="http://www.w3.org/2000/svg">
<path d="M6.05825 2.59525C7.43254 1.41019 9.18534 0.75569 11 0.75C14.6988 0.75 17.7691 3.5 18.1033 7.04612C20.2922 7.3555 22 9.18837 22 11.4379C22 13.9074 19.9403 15.875 17.4446 15.875H5.19887C2.3485 15.875 0 13.6283 0 10.8123C0 8.38812 1.74075 6.38062 4.04525 5.87187C4.24187 4.68525 5.005 3.50275 6.05825 2.59525ZM6.95613 3.63613C5.91525 4.534 5.37075 5.61613 5.37075 6.46313V7.07913L4.75887 7.1465C2.838 7.35687 1.375 8.934 1.375 10.8123C1.375 12.8294 3.06625 14.5 5.19887 14.5H17.4446C19.2225 14.5 20.625 13.1085 20.625 11.4379C20.625 9.76587 19.2225 8.37438 17.4446 8.37438H16.7571V7.68688C16.7585 4.63438 14.201 2.125 11 2.125C9.51483 2.13093 8.08066 2.66735 6.95613 3.6375V3.63613Z" fill="#EFEFEF"/>
</svg>
