<svg width="23" height="8" viewBox="0 0 23 8" fill="none" xmlns="http://www.w3.org/2000/svg">
<path d="M18.9216 0C17.2064 0 15.6802 1.06647 15.113 2.66618H7.87386C7.51598 1.66846 6.772 0.85144 5.80494 0.394162C4.83788 -0.0631152 3.7266 -0.123361 2.71462 0.226626C2.21164 0.400585 1.74833 0.67069 1.35117 1.0215C0.954009 1.37231 0.630793 1.79694 0.4 2.27112C0.169206 2.7453 0.0353591 3.25973 0.00611173 3.785C-0.0231356 4.31027 0.0527898 4.83608 0.229547 5.33237C0.592269 6.3327 1.34127 7.15073 2.31298 7.60781C3.28469 8.06489 4.40016 8.12389 5.41579 7.77193C6.56379 7.372 7.44167 6.4655 7.87386 5.33237H15.1265C15.8693 7.41199 18.1923 8.50513 20.2722 7.77193C20.7767 7.59975 21.2418 7.33087 21.6407 6.98074C22.0396 6.6306 22.3645 6.20611 22.5967 5.73166C22.8289 5.25721 22.9638 4.74215 22.9936 4.21607C23.0235 3.69 22.9478 3.16328 22.7708 2.66618C22.1901 1.06647 20.6504 0 18.9216 0ZM18.9216 5.99891C18.3843 5.99891 17.8691 5.78824 17.4891 5.41323C17.1092 5.03823 16.8958 4.52961 16.8958 3.99928C16.8958 3.46894 17.1092 2.96032 17.4891 2.58532C17.8691 2.21031 18.3843 1.99964 18.9216 1.99964C19.4589 1.99964 19.9742 2.21031 20.3542 2.58532C20.7341 2.96032 20.9475 3.46894 20.9475 3.99928C20.9475 4.52961 20.7341 5.03823 20.3542 5.41323C19.9742 5.78824 19.4589 5.99891 18.9216 5.99891Z" fill="#EFEFEF"/>
</svg>
