<svg width="22" height="22" viewBox="0 0 22 22" fill="none" xmlns="http://www.w3.org/2000/svg">
<path d="M2.00012 2.75C2.00012 2.55109 2.07914 2.36032 2.21979 2.21967C2.36044 2.07902 2.55121 2 2.75012 2C2.94903 2 3.1398 2.07902 3.28045 2.21967C3.4211 2.36032 3.50012 2.55109 3.50012 2.75V9.008L7.15012 7.086C7.26325 7.02656 7.3897 6.99701 7.51746 7.00016C7.64522 7.00331 7.77005 7.03905 7.88012 7.104L11.7001 9.35L17.3001 5.15C17.4115 5.06643 17.544 5.01554 17.6828 5.00303C17.8215 4.99052 17.961 5.01689 18.0855 5.07918C18.2101 5.14147 18.3149 5.23722 18.3881 5.3557C18.4613 5.47418 18.5001 5.61072 18.5001 5.75V18.5H19.2501C19.449 18.5 19.6398 18.579 19.7804 18.7197C19.9211 18.8603 20.0001 19.0511 20.0001 19.25C20.0001 19.4489 19.9211 19.6397 19.7804 19.7803C19.6398 19.921 19.449 20 19.2501 20H2.75012C2.55121 20 2.36044 19.921 2.21979 19.7803C2.07914 19.6397 2.00012 19.4489 2.00012 19.25V10.264C1.99996 10.255 1.99996 10.246 2.00012 10.237V2.75ZM3.50012 10.703V18.5H17.0001V7.25L12.2001 10.85C12.0817 10.9387 11.9398 10.9903 11.7921 10.9985C11.6444 11.0067 11.4976 10.971 11.3701 10.896L7.48012 8.608L3.50012 10.703Z" fill="#EFEFEF"/>
</svg>
