<svg width="22" height="22" viewBox="0 0 22 22" fill="none" xmlns="http://www.w3.org/2000/svg">
<rect width="22" height="22" rx="5" fill="#515151"/>
<path d="M17.6667 7.82667C17.6672 7.73893 17.6504 7.65196 17.6172 7.57073C17.5841 7.48951 17.5352 7.41563 17.4734 7.35334L14.6467 4.52667C14.5844 4.46489 14.5105 4.416 14.4293 4.38283C14.3481 4.34965 14.2611 4.33283 14.1734 4.33334C14.0856 4.33283 13.9987 4.34965 13.9174 4.38283C13.8362 4.416 13.7623 4.46489 13.7001 4.52667L11.8134 6.41334L4.52672 13.7C4.46493 13.7623 4.41605 13.8362 4.38287 13.9174C4.34969 13.9986 4.33288 14.0856 4.33339 14.1733V17C4.33339 17.1768 4.40362 17.3464 4.52865 17.4714C4.65367 17.5964 4.82324 17.6667 5.00005 17.6667H7.82672C7.92 17.6717 8.01331 17.6572 8.1006 17.6239C8.18788 17.5905 8.26719 17.5393 8.33338 17.4733L15.5801 10.1867L17.4734 8.33334C17.5342 8.26873 17.5838 8.19436 17.6201 8.11334C17.6265 8.0602 17.6265 8.00648 17.6201 7.95334C17.6232 7.92231 17.6232 7.89104 17.6201 7.86001L17.6667 7.82667ZM7.55339 16.3333H5.66672V14.4467L12.2867 7.82667L14.1734 9.71334L7.55339 16.3333ZM15.1134 8.77334L13.2267 6.88667L14.1734 5.94667L16.0534 7.82667L15.1134 8.77334Z" fill="#EFEFEF"/>
</svg>
