<svg width="10" height="5" viewBox="0 0 10 5" fill="none" xmlns="http://www.w3.org/2000/svg">
<path d="M9.08334 0.932499C9.08363 1.01965 9.0644 1.10575 9.02705 1.18449C8.9897 1.26323 8.93518 1.3326 8.8675 1.3875L5.3675 4.205C5.26313 4.2908 5.1322 4.3377 4.99709 4.3377C4.86197 4.3377 4.73105 4.2908 4.62667 4.205L1.12667 1.28833C1.00754 1.18932 0.932629 1.04704 0.918408 0.892788C0.904186 0.73854 0.951822 0.584959 1.05084 0.465833C1.14985 0.346706 1.29213 0.271793 1.44638 0.257571C1.60063 0.24335 1.75421 0.290985 1.87334 0.389999L5 2.9975L8.12667 0.477499C8.21229 0.406168 8.31656 0.360856 8.42713 0.346926C8.5377 0.332997 8.64995 0.351031 8.75059 0.398897C8.85123 0.446763 8.93605 0.522457 8.99502 0.617021C9.05399 0.711585 9.08464 0.821063 9.08334 0.932499Z" fill="#EFEFEF"/>
</svg>
