<svg width="22" height="22" viewBox="0 0 22 22" fill="none" xmlns="http://www.w3.org/2000/svg">
<path d="M8.9375 14.4375H17.9919L16.2181 16.2181L17.1875 17.1875L20.625 13.75L17.1875 10.3125L16.2181 11.2819L17.9919 13.0625H8.9375V14.4375Z" fill="#EFEFEF"/>
<path d="M15.125 9.62501V6.87501C15.1255 6.78453 15.1082 6.69484 15.074 6.61108C15.0398 6.52731 14.9893 6.45113 14.9256 6.38689L10.1131 1.57439C10.0489 1.51067 9.9727 1.46026 9.88894 1.42604C9.80517 1.39183 9.71548 1.37449 9.625 1.37501H2.75C2.38533 1.37501 2.03559 1.51988 1.77773 1.77774C1.51987 2.0356 1.375 2.38534 1.375 2.75001V19.25C1.375 19.6147 1.51987 19.9644 1.77773 20.2223C2.03559 20.4801 2.38533 20.625 2.75 20.625H13.75C14.1147 20.625 14.4644 20.4801 14.7223 20.2223C14.9801 19.9644 15.125 19.6147 15.125 19.25V17.875H13.75V19.25H2.75V2.75001H8.25V6.87501C8.25 7.23968 8.39487 7.58942 8.65273 7.84728C8.91059 8.10515 9.26033 8.25001 9.625 8.25001H13.75V9.62501H15.125ZM9.625 6.87501V3.03189L13.4681 6.87501H9.625Z" fill="#EFEFEF"/>
</svg>
