<svg width="22" height="22" viewBox="0 0 22 22" fill="none" xmlns="http://www.w3.org/2000/svg">
<path d="M19.7189 7.67112C19.2417 7.02075 18.5763 6.259 17.8461 5.52887C17.116 4.79875 16.3542 4.13325 15.7039 3.65612C14.5956 2.8435 14.058 2.75 13.75 2.75H5.84375C4.89638 2.75 4.125 3.52138 4.125 4.46875V20.2812C4.125 21.2286 4.89638 22 5.84375 22H18.9062C19.8536 22 20.625 21.2286 20.625 20.2812V9.625C20.625 9.317 20.5315 8.77938 19.7189 7.67112ZM16.8726 6.50238C17.5326 7.16237 18.0496 7.75637 18.4319 8.25H15.1236V4.94313C15.6172 5.32538 16.2126 5.84238 16.8713 6.50238H16.8726ZM19.25 20.2812C19.25 20.4683 19.0933 20.625 18.9062 20.625H5.84375C5.75291 20.6239 5.6661 20.5874 5.60187 20.5231C5.53763 20.4589 5.50107 20.3721 5.5 20.2812V4.46875C5.5 4.28313 5.65675 4.125 5.84375 4.125H13.75V8.9375C13.75 9.11984 13.8224 9.2947 13.9514 9.42364C14.0803 9.55257 14.2552 9.625 14.4375 9.625H19.25V20.2812Z" fill="#EFEFEF"/>
<path d="M12.9539 0.906125C11.8456 0.0934999 11.308 0 11 0H3.09375C2.14638 0 1.375 0.771375 1.375 1.71875V17.5312C1.375 18.3617 1.96625 19.0561 2.75 19.2156V1.71875C2.75 1.53313 2.90813 1.375 3.09375 1.375H13.5534C13.3573 1.21343 13.1569 1.05708 12.9525 0.906125H12.9539Z" fill="#EFEFEF"/>
</svg>
