<svg width="8" height="23" viewBox="0 0 8 23" fill="none" xmlns="http://www.w3.org/2000/svg">
<path d="M-8.27091e-07 4.07836C-7.52116e-07 5.7936 1.06647 7.31976 2.66618 7.88701L2.66618 15.1261C1.66846 15.484 0.85144 16.228 0.394162 17.1951C-0.0631154 18.1621 -0.123361 19.2734 0.226626 20.2854C0.400585 20.7884 0.67069 21.2517 1.0215 21.6488C1.37231 22.046 1.79694 22.3692 2.27112 22.6C2.7453 22.8308 3.25973 22.9646 3.785 22.9939C4.31027 23.0231 4.83608 22.9472 5.33237 22.7705C6.3327 22.4077 7.15073 21.6587 7.60781 20.687C8.06489 19.7153 8.12389 18.5998 7.77193 17.5842C7.372 16.4362 6.4655 15.5583 5.33237 15.1261L5.33237 7.8735C7.41199 7.13068 8.50513 4.80768 7.77192 2.72778C7.59975 2.22326 7.33087 1.75819 6.98074 1.35929C6.6306 0.960384 6.20611 0.635505 5.73166 0.403324C5.25721 0.171142 4.74215 0.0362356 4.21607 0.00635129C3.69 -0.023533 3.16328 0.0522002 2.66618 0.229193C1.06647 0.809944 -9.02657e-07 2.34961 -8.27091e-07 4.07836ZM5.99891 4.07836C5.99891 4.61566 5.78824 5.13094 5.41323 5.51087C5.03823 5.89079 4.52961 6.10424 3.99927 6.10424C3.46894 6.10424 2.96032 5.89079 2.58532 5.51087C2.21031 5.13095 1.99964 4.61566 1.99964 4.07836C1.99964 3.54106 2.21031 3.02577 2.58532 2.64585C2.96032 2.26592 3.46894 2.05248 3.99927 2.05248C4.52961 2.05248 5.03823 2.26592 5.41323 2.64585C5.78824 3.02577 5.99891 3.54106 5.99891 4.07836Z" fill="#EFEFEF"/>
</svg>
