<svg width="41" height="40" viewBox="0 0 41 40" fill="none" xmlns="http://www.w3.org/2000/svg">
<path d="M27.4032 17.156H22.9656L19.1728 25.2785C19.1728 25.2785 17.6332 21.6302 17.429 21.1599C16.5525 19.1246 15.2057 18.2803 14.2282 17.9269C13.1773 17.5483 12.1608 17.5827 11.367 17.7342C10.5157 17.8948 9.91683 18.1862 9.8021 18.2459L11.6262 21.8115L11.601 21.8253C11.7868 21.7381 12.4201 21.527 12.8882 21.7037C13.1222 21.7909 13.4527 22.0547 13.6936 22.5136L17.8351 31.4278H20.5128L27.4032 17.156ZM30.2048 11.9796C30.2048 10.596 29.0851 9.47628 27.7015 9.47628C26.3179 9.47628 25.1982 10.596 25.1982 11.9796C25.1982 13.3632 26.3179 14.4829 27.7015 14.4829C29.0851 14.4829 30.2048 13.3632 30.2048 11.9796ZM38.208 19.9989C38.208 30.0373 30.0419 38.2057 20.0012 38.2057C9.96042 38.2057 1.7943 30.0373 1.7943 19.9989C1.7943 9.96042 9.96272 1.792 20.0012 1.792C30.0396 1.792 38.208 9.96042 38.208 19.9989ZM40.0023 19.9989C40.0023 8.97149 31.0308 0 20.0012 0C8.97149 0 0 8.97149 0 19.9989C0 31.0262 8.97149 40 20.0012 40C31.0308 40 40.0023 31.0262 40.0023 19.9989Z" fill="white"/>
</svg>
