<svg width="30" height="30" viewBox="0 0 30 30" fill="none" xmlns="http://www.w3.org/2000/svg">
<path d="M23.4375 12.1875C23.4375 9.94974 22.5486 7.80362 20.9662 6.22129C19.3839 4.63895 17.2378 3.75 15 3.75C12.7622 3.75 10.6161 4.63895 9.03379 6.22129C7.45145 7.80362 6.5625 9.94974 6.5625 12.1875C6.5625 15.6487 9.33187 20.16 15 25.5637C20.6681 20.16 23.4375 15.6487 23.4375 12.1875ZM15 28.125C8.12437 21.8756 4.6875 16.5619 4.6875 12.1875C4.6875 9.45246 5.77399 6.82943 7.70796 4.89546C9.64193 2.96149 12.265 1.875 15 1.875C17.735 1.875 20.3581 2.96149 22.292 4.89546C24.226 6.82943 25.3125 9.45246 25.3125 12.1875C25.3125 16.5619 21.8756 21.8756 15 28.125Z" fill="#EFEFEF"/>
<path d="M15 13.125C15.4973 13.125 15.9742 12.9275 16.3258 12.5758C16.6775 12.2242 16.875 11.7473 16.875 11.25C16.875 10.7527 16.6775 10.2758 16.3258 9.92418C15.9742 9.57254 15.4973 9.375 15 9.375C14.5027 9.375 14.0258 9.57254 13.6742 9.92418C13.3225 10.2758 13.125 10.7527 13.125 11.25C13.125 11.7473 13.3225 12.2242 13.6742 12.5758C14.0258 12.9275 14.5027 13.125 15 13.125ZM15 15C14.0054 15 13.0516 14.6049 12.3483 13.9017C11.6451 13.1984 11.25 12.2446 11.25 11.25C11.25 10.2554 11.6451 9.30161 12.3483 8.59835C13.0516 7.89509 14.0054 7.5 15 7.5C15.9946 7.5 16.9484 7.89509 17.6516 8.59835C18.3549 9.30161 18.75 10.2554 18.75 11.25C18.75 12.2446 18.3549 13.1984 17.6516 13.9017C16.9484 14.6049 15.9946 15 15 15ZM25.125 20.625L28.125 28.125H19.6875V26.25H10.3125V28.125H1.875L4.875 20.625H25.125ZM23.1056 20.625H6.89438L4.64437 26.25H25.3556L23.1056 20.625Z" fill="#EFEFEF"/>
</svg>
