<svg width="22" height="22" viewBox="0 0 22 22" fill="none" xmlns="http://www.w3.org/2000/svg">
<path d="M15.7534 11.3438L17.6736 9.42356C17.8024 9.29464 17.8749 9.1198 17.8749 8.9375C17.8749 8.7552 17.8024 8.58036 17.6736 8.45144L16.0971 6.875L17.5312 5.44088L19.6529 7.5625L20.625 6.59038L15.4096 1.375L14.4375 2.34713L16.5591 4.46875L15.125 5.90288L13.5486 4.32644C13.4196 4.19755 13.2448 4.12515 13.0625 4.12515C12.8802 4.12515 12.7054 4.19755 12.5764 4.32644L10.6562 6.24663L5.98606 1.57644C5.85714 1.44755 5.6823 1.37515 5.5 1.37515C5.3177 1.37515 5.14286 1.44755 5.01394 1.57644L1.57644 5.01394C1.44755 5.14286 1.37515 5.3177 1.37515 5.5C1.37515 5.6823 1.44755 5.85714 1.57644 5.98606L6.24663 10.6562L4.32644 12.5764C4.19755 12.7054 4.12515 12.8802 4.12515 13.0625C4.12515 13.2448 4.19755 13.4196 4.32644 13.5486L5.90288 15.125L4.46875 16.5591L2.34713 14.4375L1.375 15.4096L6.59038 20.625L7.5625 19.6529L5.44088 17.5312L6.875 16.0971L8.45144 17.6736C8.58036 17.8024 8.7552 17.8749 8.9375 17.8749C9.1198 17.8749 9.29464 17.8024 9.42356 17.6736L11.3438 15.7534L16.0139 20.4236C16.1429 20.5524 16.3177 20.6249 16.5 20.6249C16.6823 20.6249 16.8571 20.5524 16.9861 20.4236L20.4236 16.9861C20.5524 16.8571 20.6249 16.6823 20.6249 16.5C20.6249 16.3177 20.5524 16.1429 20.4236 16.0139L15.7534 11.3438ZM3.03463 5.5L5.5 3.03463L6.93413 4.46875L4.46875 6.93413L3.03463 5.5ZM5.44088 7.90625L7.90625 5.44088L9.68412 7.21875L7.21875 9.68412L5.44088 7.90625ZM8.9375 16.2154L5.78462 13.0625L13.0625 5.78462L16.2154 8.9375L8.9375 16.2154ZM12.3159 14.7812L14.7812 12.3159L16.5591 14.0938L14.0938 16.5591L12.3159 14.7812ZM16.5 18.9654L15.0659 17.5312L17.5312 15.0659L18.9654 16.5L16.5 18.9654Z" fill="#EFEFEF"/>
</svg>
