<svg width="26" height="20" viewBox="0 0 26 20" fill="none" xmlns="http://www.w3.org/2000/svg">
<path fill-rule="evenodd" clip-rule="evenodd" d="M16.73 2.68064C16.1679 3.17743 15.4947 4.16017 14.6415 6.14354C14.1895 7.19425 13.7238 7.96323 13.1905 8.44969C12.5969 8.99123 11.9226 9.17478 11.2405 9.0317C10.6708 8.91221 10.1788 8.57326 9.86087 8.35364C9.8264 8.32983 9.79317 8.30682 9.76107 8.2846C9.43337 8.05769 9.22423 7.91287 9.01535 7.82963C8.67242 7.69298 8.31862 7.72815 7.90167 8.05124C7.44812 8.40269 6.95808 9.08254 6.5624 10.1337C6.01927 11.5767 5.74265 12.8301 5.48802 13.9839C5.46053 14.1085 5.43329 14.2319 5.40599 14.3543C5.13397 15.5742 4.84102 16.7865 4.14435 17.8277C3.09464 19.3963 1.81607 20 1 20C0.447715 20 0 19.5523 0 19C0 18.4477 0.447715 18 1 18C0.995482 18 0.998743 17.9991 1.00908 17.9963C1.10164 17.9712 1.7617 17.7921 2.48216 16.7154C2.94211 16.028 3.17426 15.1732 3.45394 13.919C3.48072 13.7989 3.50781 13.676 3.53553 13.5502C3.78897 12.3997 4.09452 11.0128 4.69061 9.42919C5.16241 8.17576 5.82899 7.12715 6.67664 6.47032C7.5609 5.78513 8.65288 5.53223 9.75574 5.97173C10.1933 6.14611 10.6023 6.43199 10.8923 6.63475C10.9294 6.66068 10.9645 6.68526 10.9976 6.70806C11.3573 6.95658 11.534 7.04974 11.6511 7.0743C11.6514 7.07437 11.652 7.0747 11.6527 7.07517C11.6614 7.08046 11.6989 7.10325 11.8426 6.97213C12.0594 6.77441 12.3888 6.31905 12.8043 5.35321C13.686 3.30348 14.5008 1.98159 15.4056 1.18201C16.3806 0.320336 17.3721 0.139106 18.3494 0.139107C19.0838 0.139107 19.7976 0.499907 20.4253 0.998171C21.0715 1.51105 21.7294 2.24985 22.3711 3.19555C23.6565 5.0898 24.9458 7.9157 25.9662 11.7423C26.1085 12.276 25.7913 12.8239 25.2577 12.9662C24.724 13.1085 24.1761 12.7913 24.0338 12.2577C23.0542 8.5843 21.8435 5.97976 20.7162 4.31856C20.1516 3.48654 19.625 2.91636 19.182 2.5647C18.7205 2.19842 18.4403 2.13911 18.3494 2.13911C17.6761 2.13911 17.2218 2.24596 16.73 2.68064Z" fill="#EFEFEF"/>
</svg>
