<svg width="14" height="7" viewBox="0 0 14 7" fill="none" xmlns="http://www.w3.org/2000/svg">
<path d="M13.4166 1.32255C13.4171 1.4595 13.3869 1.59481 13.3282 1.71854C13.2695 1.84227 13.1838 1.95128 13.0775 2.03755L7.57747 6.46505C7.41345 6.59988 7.20771 6.67358 6.99538 6.67358C6.78306 6.67358 6.57732 6.59988 6.4133 6.46505L0.913301 1.88172C0.726102 1.72613 0.60838 1.50254 0.586032 1.26015C0.563684 1.01776 0.638541 0.776421 0.794134 0.589222C0.949728 0.402024 1.17331 0.284302 1.4157 0.261954C1.6581 0.239606 1.89944 0.314462 2.08663 0.470056L6.99997 4.56755L11.9133 0.607555C12.0479 0.495463 12.2117 0.424259 12.3855 0.402369C12.5592 0.38048 12.7356 0.40882 12.8937 0.484038C13.0519 0.559256 13.1852 0.678203 13.2779 0.826804C13.3705 0.975405 13.4187 1.14744 13.4166 1.32255Z" fill="#EFEFEF"/>
</svg>
