<svg width="26" height="27" viewBox="0 0 26 27" fill="none" xmlns="http://www.w3.org/2000/svg">
<path d="M13 0.75C9.55219 0.75 6.24558 2.11964 3.80761 4.55761C1.36964 6.99558 0 10.3022 0 13.75C0 17.1978 1.36964 20.5044 3.80761 22.9424C6.24558 25.3804 9.55219 26.75 13 26.75C16.4478 26.75 19.7544 25.3804 22.1924 22.9424C24.6304 20.5044 26 17.1978 26 13.75C26 10.3022 24.6304 6.99558 22.1924 4.55761C19.7544 2.11964 16.4478 0.75 13 0.75ZM20.3563 18.0833C20.5885 16.9879 20.7359 15.8248 20.7827 14.6167H24.2337C24.1444 15.8092 23.864 16.9797 23.4035 18.0833H20.3563ZM5.64373 9.41667C5.40364 10.5581 5.261 11.7178 5.21733 12.8833H1.76627C1.85563 11.6908 2.13595 10.5203 2.59653 9.41667H5.64373ZM18.5796 9.41667C18.8396 10.526 18.9973 11.6873 19.0476 12.8833H13.8667V9.41667H18.5796ZM13.8667 7.68333V2.60987C14.2619 2.72427 14.6536 2.9184 15.0367 3.1888C15.756 3.69667 16.4459 4.4784 17.0283 5.44907C17.4321 6.1216 17.7805 6.86867 18.07 7.68333H13.8649H13.8667ZM8.97173 5.44907C9.55413 4.47667 10.244 3.69493 10.9633 3.1888C11.3481 2.9184 11.7381 2.72427 12.1333 2.60987V7.68333H7.92827C8.20186 6.9064 8.55076 6.15809 8.97 5.44907H8.97173ZM12.1333 9.41667V12.8833H6.9524C7.00267 11.6873 7.1604 10.526 7.4204 9.41667H12.1333ZM2.59653 18.0833C2.13595 16.9797 1.85563 15.8092 1.76627 14.6167H5.21733C5.26587 15.8248 5.41147 16.9879 5.64373 18.0833H2.59653ZM6.9524 14.6167H12.1333V18.0833H7.4204C7.1604 16.974 7.00267 15.8127 6.9524 14.6167ZM12.1333 19.8167V24.8901C11.7138 24.7636 11.3184 24.568 10.9633 24.3112C10.244 23.8033 9.55413 23.0216 8.97173 22.0509C8.55122 21.3423 8.2017 20.594 7.92827 19.8167H12.1333ZM17.03 22.0509C16.4476 23.0233 15.7577 23.8051 15.0384 24.3112C14.6832 24.5676 14.2878 24.7633 13.8684 24.8901V19.8167H18.0735C17.7823 20.6313 17.4339 21.3784 17.03 22.0509ZM13.8667 18.0833V14.6167H19.0476C18.9973 15.8127 18.8396 16.974 18.5796 18.0833H13.8667ZM20.7827 12.8833C20.7381 11.7179 20.5955 10.5582 20.3563 9.41667H23.4035C23.8663 10.5243 24.1436 11.6856 24.2337 12.8833H20.7827ZM22.4969 7.68333H19.9004C19.396 6.09213 18.6992 4.6968 17.8603 3.58227C19.0137 4.13342 20.0642 4.87795 20.9664 5.7836C21.5488 6.366 22.0601 7.0004 22.4969 7.68333ZM5.0336 5.7836C5.93643 4.87873 6.98684 4.1343 8.13973 3.58227C7.30253 4.6968 6.604 6.09213 6.0996 7.68333H3.50307C3.93987 7.0004 4.4512 6.36427 5.0336 5.7836ZM3.50307 19.8167H6.0996C6.604 21.4079 7.3008 22.8032 8.13973 23.9177C6.98632 23.3666 5.93577 22.622 5.0336 21.7164C4.45622 21.1404 3.94304 20.5034 3.50307 19.8167ZM20.9664 21.7164C20.0636 22.6213 19.0132 23.3657 17.8603 23.9177C18.6975 22.8032 19.396 21.4079 19.9004 19.8167H22.4969C22.0574 20.5037 21.5442 21.1407 20.9664 21.7164Z" fill="#EFEFEF"/>
</svg>
