<svg width="24" height="26" viewBox="0 0 24 26" fill="none" xmlns="http://www.w3.org/2000/svg">
<path d="M23.1453 6.74375C23.1424 6.74375 23.1396 6.74259 23.1376 6.74054C23.1355 6.73849 23.1344 6.73571 23.1344 6.73281C22.9763 6.46365 22.7499 6.24104 22.4781 6.0875L12.8531 0.673435C12.5924 0.527837 12.2987 0.451401 12 0.451401C11.7013 0.451401 11.4077 0.527837 11.1469 0.673435L1.52188 6.0875C1.25011 6.24104 1.02372 6.46365 0.865633 6.73281C0.865633 6.73571 0.86448 6.73849 0.862429 6.74054C0.860378 6.74259 0.857596 6.74375 0.854695 6.74375V6.76562C0.703482 7.02046 0.624109 7.31149 0.625008 7.60781V18.3922C0.625561 18.704 0.708883 19.01 0.866459 19.279C1.02403 19.5481 1.25021 19.7704 1.52188 19.9234L11.1469 25.3375C11.3892 25.4697 11.6586 25.5445 11.9344 25.5562H12.0875C12.3563 25.5443 12.6186 25.4694 12.8531 25.3375L22.4781 19.9234C22.7498 19.7704 22.976 19.5481 23.1336 19.279C23.2911 19.01 23.3745 18.704 23.375 18.3922V7.60781C23.3766 7.30449 23.2973 7.00623 23.1453 6.74375ZM12 2.19375L20.7172 7.09375L12.0984 11.9937L3.29376 7.09375L12 2.19375ZM2.37501 8.58125L11.2234 13.5141L11.1359 23.325L2.37501 18.3922V8.58125ZM12.8859 23.3141L12.9734 13.5141L21.625 8.59218V18.3922L12.8859 23.3141Z" fill="#EFEFEF"/>
</svg>
